<svg height="23.19mm" viewBox="0 0 257.74 65.73" width="90.92mm" xmlns="http://www.w3.org/2000/svg"><g fill="#fff" transform="translate(-2.45 -1.59)"><path d="m16.33 17.12a21.53 21.53 0 0 0 -2.24.3 22.46 22.46 0 0 0 -2.75.56 15 15 0 0 1 -2.88.66 1.93 1.93 0 0 1 -.67-.1l-.19-.06c-.07 0-.3.38-.68 1.15a12 12 0 0 1 -1.61 2.66 1.7 1.7 0 0 1 -1.15.66 1.92 1.92 0 0 1 -1.1-.49 1.35 1.35 0 0 1 -.64-1 8.6 8.6 0 0 1 1.64-2.83 63.2 63.2 0 0 0 4.53-7 51.09 51.09 0 0 1 3.41-5.82c.76-1 1.37-1.54 1.83-1.54 1.19 0 1.79.45 1.79 1.34a2.78 2.78 0 0 1 -.1.78c.38 1.19.68 2.09.92 2.68q.11.23 2.14 5.65a22.14 22.14 0 0 0 1.42 3.12 8.65 8.65 0 0 0 1.47 2.16c1.23 1 1.84 1.86 1.84 2.48a1.81 1.81 0 0 1 -.47 1.24 1.46 1.46 0 0 1 -1.12.53c-1 0-2.12-1.1-3.42-3.28a16.14 16.14 0 0 1 -1.97-3.85zm-1-2.51c-.46-1.23-.93-2.55-1.4-4-.38-1.12-.59-1.69-.62-1.71l-3.38 6-.37.68z"/><path d="m47 8.34v-.06c0-.19-.2-.43-.6-.71a2.26 2.26 0 0 0 -1.4-.42 14.15 14.15 0 0 0 -3.9.49 1.94 1.94 0 0 0 -.65.26 15.53 15.53 0 0 0 -.76 2.6 48.32 48.32 0 0 0 -1 5.29l-.1.65a35.51 35.51 0 0 0 -.59 4.69 1.7 1.7 0 0 1 -1.8 1.87 1.12 1.12 0 0 1 -1-.58 2.49 2.49 0 0 1 -.36-1.42 8.48 8.48 0 0 1 .24-1.32q.39-1.62 1.23-5.74c.56-2.75.85-4.16.85-4.22 0-.41-.11-.62-.34-.62a1.35 1.35 0 0 1 -.94-.36 1.12 1.12 0 0 1 -.4-.84c0-.88 1.14-1.64 3.43-2.29a25.07 25.07 0 0 1 6.88-1 4.86 4.86 0 0 1 2.93 1.07 3 3 0 0 1 1.42 2.41 4.33 4.33 0 0 1 -.93 2.15 14.17 14.17 0 0 1 -2.42 2.76c2.24.48 3.35 2 3.35 4.51 0 1.08-.89 2.4-2.69 4a9.24 9.24 0 0 1 -6.24 2.34 3.3 3.3 0 0 1 -1.51-.3.9.9 0 0 1 -.57-.8 1.61 1.61 0 0 1 .28-.85 1.86 1.86 0 0 1 .68-.66 3.12 3.12 0 0 1 1.23-.27 6.92 6.92 0 0 0 4.16-1.42q1.44-1.23 1.44-2a2.79 2.79 0 0 0 -.67-1.71 2 2 0 0 0 -1.6-.87 1.78 1.78 0 0 0 -.41.11 9.7 9.7 0 0 1 -2 .65 2.38 2.38 0 0 1 -1.55-.35 1.41 1.41 0 0 1 -.37-1.07c0-.34.36-.68 1.08-1a21.63 21.63 0 0 0 2.6-1.42 7.56 7.56 0 0 0 1.81-1.57 5.83 5.83 0 0 0 1.19-1.98z"/><path d="m55.65 14.84c1.57-1.78 3.15-2.67 4.72-2.67a3.76 3.76 0 0 1 2.61 1 2.87 2.87 0 0 1 1.02 2.15q0 2.91-3 5.4a9 9 0 0 1 -5.63 2.5 2.49 2.49 0 0 1 -2.19-1.22 6.49 6.49 0 0 1 -.76-3.45 23.07 23.07 0 0 1 1.34-7.63c.08-.24.15-.47.22-.7s.36-.56.85-.75a3.15 3.15 0 0 1 1.06-.3.86.86 0 0 1 .65.31 1.11 1.11 0 0 1 .29.76 10.74 10.74 0 0 1 -.45 1.87c-.38 1.41-.66 2.32-.73 2.73zm-.28 2.68a9.64 9.64 0 0 0 -.08 1.12q0 1.39.33 1.71a1 1 0 0 0 .64.3 5.85 5.85 0 0 0 2.88-1.35 3.73 3.73 0 0 0 1.89-3 1.65 1.65 0 0 0 -.37-1.14 1.12 1.12 0 0 0 -.91-.43 4.83 4.83 0 0 0 -3.58 2.07c-.39.47-.65.71-.8.72zm11.73 1.9a9.75 9.75 0 0 0 .25 2 2.35 2.35 0 0 1 0 .34c0 .19-.17.43-.52.74a1.62 1.62 0 0 1 -1.11.47c-1 0-1.57-.8-1.57-2.39a19.08 19.08 0 0 1 .14-2.42c.1-.79.35-2.24.75-4.37a17.05 17.05 0 0 0 .31-2.1 2.64 2.64 0 0 1 .39-1.49 1.21 1.21 0 0 1 1.08-.6 1.86 1.86 0 0 1 1.27.39 1.14 1.14 0 0 1 .44.86 9.76 9.76 0 0 1 -.46 2.07 23.39 23.39 0 0 0 -.97 6.5z"/><path d="m88.23 19.47q-3.69 2.91-5.68 2.91a2.4 2.4 0 0 1 -2-1 4.09 4.09 0 0 1 -.75-2.47 18.37 18.37 0 0 1 .75-4.63 8.5 8.5 0 0 1 1.26-3.21 2.05 2.05 0 0 1 1.34-.43 1 1 0 0 1 .86.48 1.92 1.92 0 0 1 .34 1.11 14.33 14.33 0 0 1 -.86 2 9.47 9.47 0 0 0 -1 3.87 2.72 2.72 0 0 0 .25 1.26c.17.33.35.49.53.49a3.48 3.48 0 0 0 1.35-.33 8.87 8.87 0 0 0 1.89-1.2 8.22 8.22 0 0 0 1.34-1.32 3.81 3.81 0 0 0 .5-1.16 16.72 16.72 0 0 0 .31-3.09 12.5 12.5 0 0 1 .14-1.75 1.22 1.22 0 0 1 .42-.65 1.37 1.37 0 0 1 .93-.3 1.52 1.52 0 0 1 1.11.33 2.48 2.48 0 0 1 .33 1.62q0 1.68-.6 7.17t-2.19 7.9a4.9 4.9 0 0 1 -4.3 2.47 7.21 7.21 0 0 1 -4.22-1.27c-1.2-.84-1.81-1.59-1.81-2.24a1.37 1.37 0 0 1 .28-.89.91.91 0 0 1 .74-.34.78.78 0 0 1 .65.34 5.26 5.26 0 0 0 4.13 2q3.08-.04 3.96-7.67z"/><path d="m104.51 17.57-.06 1.13c-.06 1.42-.16 2.67-.31 3.75a.93.93 0 0 1 -.53.59 1.81 1.81 0 0 1 -.79.2 1.24 1.24 0 0 1 -1.39-1.41l.56-4a20 20 0 0 0 -3.11 2.26 10.71 10.71 0 0 0 -2.22 2.25 3 3 0 0 1 -.9 1.22 1.77 1.77 0 0 1 -.91.26 1.8 1.8 0 0 1 -1.08-.32 1.06 1.06 0 0 1 -.43-.92 4.29 4.29 0 0 1 1.43-2.32 15.76 15.76 0 0 1 3.39-2.69l2.31-1.43a25.5 25.5 0 0 0 -2.61-1.81 14 14 0 0 1 -2.86-2.07 2 2 0 0 1 -.51-1.18 1.45 1.45 0 0 1 1.3-1.36 2.55 2.55 0 0 1 .79.25 2.09 2.09 0 0 1 .81.51 44 44 0 0 0 4.77 4.08 14.38 14.38 0 0 0 -.09-2.94 5.74 5.74 0 0 1 0-.82 1.23 1.23 0 0 1 .5-1 1.89 1.89 0 0 1 1.18-.38 1.49 1.49 0 0 1 1.07.29 1.6 1.6 0 0 1 .27 1.07c0 .08 0 .67-.13 1.78-.06.8-.09 1.27-.09 1.42v.64a21.58 21.58 0 0 0 2.24-2.11 39.72 39.72 0 0 1 3-2.92 2 2 0 0 1 1-.5c.89 0 1.34.42 1.34 1.25q0 .24-1 1.35c-.68.74-1.19 1.27-1.52 1.58l-.3.29c-1 .94-2 1.76-2.85 2.48.78.47 2 1.31 3.59 2.53.29.22.69.5 1.19.83 1.11.76 1.67 1.43 1.67 2 0 .91-.43 1.37-1.3 1.37s-2.55-1.25-5.23-3.73l-1.4-1.24a1.18 1.18 0 0 0 -.79-.23z"/><path d="m125.53 18.83c0 .82-.69 1.81-2.08 3a7.23 7.23 0 0 1 -4.71 1.72 4.07 4.07 0 0 1 -3.18-1.27 5 5 0 0 1 -1.15-3.53 9.73 9.73 0 0 1 2.36-6.26q2.36-2.92 5-2.92a2.82 2.82 0 0 1 3 2.86 5.43 5.43 0 0 1 -2 3.95 10.75 10.75 0 0 1 -5.11 2.59.41.41 0 0 0 -.35.43 1.55 1.55 0 0 0 .5 1.09 1.8 1.8 0 0 0 1.36.52 6.74 6.74 0 0 0 4.76-2.46 1.25 1.25 0 0 1 .88-.48c.49-.07.72.22.72.76zm-8-2.11a7.27 7.27 0 0 0 3.32-1.61 3.3 3.3 0 0 0 1.44-2.23 1 1 0 0 0 -.22-.67.73.73 0 0 0 -.57-.26 3.34 3.34 0 0 0 -2.3 1.52 8 8 0 0 0 -1.67 3.25z"/><path d="m146.81 21.19a12 12 0 0 1 -.84-4c-.17-2-.56-3-1.16-3s-1.57 1.06-3 3.18a22.16 22.16 0 0 0 -2.6 4.69 1.7 1.7 0 0 1 -.4.75.84.84 0 0 1 -.58.3c-1.21 0-1.81-.55-1.81-1.66a20.85 20.85 0 0 1 .35-2.55 36.17 36.17 0 0 0 .47-6.3 2 2 0 0 1 .49-1.2 1.34 1.34 0 0 1 1-.63 1.5 1.5 0 0 1 1.06.34 2.88 2.88 0 0 1 .37 1.84 27.2 27.2 0 0 1 -.68 4.39c1.72-4 3.65-6.06 5.77-6.06q2.76 0 3.24 4.35c.32 3 .69 4.44 1.1 4.44a2 2 0 0 0 .63-.12 2.14 2.14 0 0 1 .68-.14q.57 0 .57.66a1.86 1.86 0 0 1 -.78 1.3 3 3 0 0 1 -2 .68 2 2 0 0 1 -2-1.2z"/><path d="m155.53 22.15c-.16.65-.35 1.84-.59 3.56s-.39 2.89-.43 3.49a2.54 2.54 0 0 1 -.62 1.5 1.41 1.41 0 0 1 -1 .62 1.71 1.71 0 0 1 -1.06-.4 1.12 1.12 0 0 1 -.52-.88 9.68 9.68 0 0 1 .29-2.23 66 66 0 0 0 2-14.73v-.24a14.22 14.22 0 0 1 .09-2 2 2 0 0 1 .6-1 1.65 1.65 0 0 1 1.18-.48 1.12 1.12 0 0 1 .94.51 2.57 2.57 0 0 1 .36 1.48 27.62 27.62 0 0 1 -.36 3.42 13.28 13.28 0 0 1 3.17-3.65 5.63 5.63 0 0 1 3.36-1.45 3.09 3.09 0 0 1 2.27 1 3.31 3.31 0 0 1 .93 2.4 10 10 0 0 1 -3 7q-3 3.15-5.91 3.15a1.57 1.57 0 0 1 -1.7-1.07zm6.93-9.76c-1 0-2.23.94-3.77 2.84s-2.32 3.37-2.32 4.46a.93.93 0 0 0 .41.74 1.47 1.47 0 0 0 1 .33c1 0 2.17-.79 3.48-2.38a7.39 7.39 0 0 0 2-4.6 1.89 1.89 0 0 0 -.23-1.06.61.61 0 0 0 -.57-.33z"/><path d="m179.46 16.88a9.54 9.54 0 0 1 -3 4.71 6.93 6.93 0 0 1 -4.46 1.91 3.71 3.71 0 0 1 -2.91-1.29 4.63 4.63 0 0 1 -1.18-3.21 10.44 10.44 0 0 1 2.09-6 6.09 6.09 0 0 1 5.09-3 4.08 4.08 0 0 1 3.3 1.51 5.41 5.41 0 0 1 1.27 3.59 7.54 7.54 0 0 1 -.21 1.78zm-6.2-3.77a7.64 7.64 0 0 0 -1.63 2.37 7.18 7.18 0 0 0 -.8 3.25 3.35 3.35 0 0 0 .36 1.64 1.09 1.09 0 0 0 1 .64 4.39 4.39 0 0 0 3.08-1.75 5.73 5.73 0 0 0 1.6-3.94 3.67 3.67 0 0 0 -.52-2 1.64 1.64 0 0 0 -1.45-.79 2.39 2.39 0 0 0 -1.59.6z"/><path d="m188.26 9.86a14.7 14.7 0 0 0 -2.19-2.21c-1-.86-1.53-1.57-1.53-2.12a1.84 1.84 0 0 1 .29-1.07 1.47 1.47 0 0 1 .66-.59 14.07 14.07 0 0 1 1.65-.49 44.59 44.59 0 0 0 5.43-1.61 2.07 2.07 0 0 1 .78-.18c.56 0 .83.32.83 1 0 .38-.46.82-1.4 1.3a21.27 21.27 0 0 1 -4.78 1.47c-.31 0-.46.16-.46.32s.32.41.95.9a9.47 9.47 0 0 1 3.73 7.92 10 10 0 0 1 -1.07 4.24 7.66 7.66 0 0 1 -2.86 3.4 6.59 6.59 0 0 1 -3.46 1.1 2.84 2.84 0 0 1 -2.52-1.46 6.36 6.36 0 0 1 -.9-3.39 9.88 9.88 0 0 1 2-5.9q2-2.76 4.21-2.76zm-3.9 8.42c0 1.68.26 2.51.77 2.51a3.34 3.34 0 0 0 1.78-.87 6.11 6.11 0 0 0 1.81-2.54 8.19 8.19 0 0 0 .69-3.13 7 7 0 0 0 -.19-1.86c-.13-.46-.25-.68-.37-.68-1.21 0-2.27.78-3.16 2.33a8.71 8.71 0 0 0 -1.33 4.24z"/><path d="m205.28 16.88a9.54 9.54 0 0 1 -3 4.71 6.93 6.93 0 0 1 -4.47 1.91 3.71 3.71 0 0 1 -2.91-1.29 4.63 4.63 0 0 1 -1.17-3.21 10.5 10.5 0 0 1 2.09-6 6.11 6.11 0 0 1 5.1-3 4.08 4.08 0 0 1 3.3 1.51 5.41 5.41 0 0 1 1.26 3.59 7.53 7.53 0 0 1 -.2 1.78zm-6.2-3.77a7.64 7.64 0 0 0 -1.63 2.37 7.18 7.18 0 0 0 -.8 3.25 3.35 3.35 0 0 0 .36 1.64 1.09 1.09 0 0 0 1 .64 4.39 4.39 0 0 0 3.08-1.75 5.73 5.73 0 0 0 1.6-3.94 3.67 3.67 0 0 0 -.52-2 1.64 1.64 0 0 0 -1.45-.79 2.39 2.39 0 0 0 -1.59.6z"/><path d="m215.64 10.79a4 4 0 0 1 1.81 2 7.5 7.5 0 0 1 .63 3.17 8 8 0 0 1 -2 5.41 5.71 5.71 0 0 1 -4.31 2.3 3.93 3.93 0 0 1 -3.33-1.67 7.83 7.83 0 0 1 -1.21-4.76 22.58 22.58 0 0 1 1.33-7.48 14.83 14.83 0 0 1 3.26-5.69 5.71 5.71 0 0 1 4-1.9 2.89 2.89 0 0 1 2.21.87 3.25 3.25 0 0 1 .82 2.35 5.16 5.16 0 0 1 -.85 2.61 13.8 13.8 0 0 1 -2.36 2.79zm-.56 5.37a6 6 0 0 0 -.41-2.35 1.56 1.56 0 0 0 -1.17-1.09 4.55 4.55 0 0 0 -.5.28l-2.81 2.11a14 14 0 0 0 -.15 2.07c0 2.57.63 3.85 1.9 3.85a2.57 2.57 0 0 0 2.22-1.5 6.54 6.54 0 0 0 .88-3.32zm-4.31-4.16a24.15 24.15 0 0 0 4.53-4.31 4.22 4.22 0 0 0 .79-2c0-.67-.2-1-.62-1-.75 0-1.57.66-2.45 2a19 19 0 0 0 -2.25 5.31z"/><path d="m227.83 19c-2.07 2.74-4.07 4.11-6 4.11a2.42 2.42 0 0 1 -1.85-.84 3.08 3.08 0 0 1 -.78-2.16q0-3.16 2.82-6.73c1.87-2.39 3.77-3.58 5.67-3.58a1.86 1.86 0 0 1 1.91 1.47c.92 0 1.37.35 1.37 1a10.43 10.43 0 0 1 -.26 1.81 21.66 21.66 0 0 0 -.48 3.93 7.5 7.5 0 0 0 .21 2.14 5.58 5.58 0 0 0 .31.81 1.11 1.11 0 0 0 .57.41.7.7 0 0 1 .48.63 1.18 1.18 0 0 1 -.62 1 2.21 2.21 0 0 1 -1.28.41 1.67 1.67 0 0 1 -1.62-1.12 6.45 6.45 0 0 1 -.49-2.62v-.36c.02-.1.03-.22.04-.31zm-.64-6.64c-.8 0-1.85.88-3.13 2.66a8.36 8.36 0 0 0 -1.93 4.53c0 .65.14 1 .41 1 .94 0 2.09-.83 3.46-2.49s2.06-3.13 2.06-4.37a1.51 1.51 0 0 0 -.27-.95.74.74 0 0 0 -.6-.42z"/><path d="m246.35 21.8a1.64 1.64 0 0 1 -.38.81 1.52 1.52 0 0 1 -1.34.53c-.79 0-1.49-.67-2.11-2a17.17 17.17 0 0 1 -1.34-4.39c-.09-.53-.22-1.15-.38-1.86 0-.13-.06-.38-.1-.75a3.44 3.44 0 0 0 -.1-.65c-.13.26-.26.55-.41.87a45.63 45.63 0 0 1 -3.26 6l-.15.27a.76.76 0 0 1 -.18.24c-1 1.77-1.79 2.65-2.42 2.65-.89 0-1.34-.4-1.34-1.21a4.3 4.3 0 0 1 1.26-2.42 40.09 40.09 0 0 0 4-6.52l1.7-3.24a1 1 0 0 1 .91-.48 2.47 2.47 0 0 1 .93.23 1.38 1.38 0 0 1 .7.56 3.82 3.82 0 0 1 .33 1q.86 4 1.55 6.35a6 6 0 0 0 1.51 2.94 1.06 1.06 0 0 1 .65 1z"/><path d="m256.47 18.56a11 11 0 0 1 -2.66 3.32 4.8 4.8 0 0 1 -3.05 1.23 2.63 2.63 0 0 1 -1.86-1 4.13 4.13 0 0 1 -.94-3 19.52 19.52 0 0 1 .72-4.28 15.62 15.62 0 0 0 .62-3.59 1.56 1.56 0 0 1 1.49-1 1.51 1.51 0 0 1 1.52 1.38 7.33 7.33 0 0 1 -.6 2.41 24.14 24.14 0 0 0 -.75 2.63 14 14 0 0 0 -.4 2.18c0 1.06.22 1.58.66 1.58.69 0 1.63-.66 2.8-2a9.71 9.71 0 0 0 2.3-4.08 10.46 10.46 0 0 1 1-2.67 1.34 1.34 0 0 1 1.18-.63c.83 0 1.24.46 1.24 1.38a3.57 3.57 0 0 1 -.2.82 14.91 14.91 0 0 0 -.71 4.75c0 2.07.35 3.31 1 3.71a.59.59 0 0 1 .35.5c0 .29-.2.56-.61.81a2.17 2.17 0 0 1 -1.16.39c-.62 0-1.11-.45-1.45-1.33a10.53 10.53 0 0 1 -.49-3.51z"/><path d="m92.73 42.11c-.11.38-.23.75-.37 1.13a20.12 20.12 0 0 0 -.84 4.91q-.33 3.68-.33 5.89a12.81 12.81 0 0 0 .37 3 9.1 9.1 0 0 1 .26 1.46 1.46 1.46 0 0 1 -1.65 1.66 1.59 1.59 0 0 1 -1.52-.9 10.39 10.39 0 0 1 -.47-3.93 35.3 35.3 0 0 1 .55-6.37 13 13 0 0 0 .27-1.71 58.66 58.66 0 0 1 -4.79 5.84 3.2 3.2 0 0 0 -.93 1.7 2.09 2.09 0 0 1 -.54 1.1 1.33 1.33 0 0 1 -.86.25 2.18 2.18 0 0 1 -.68-.25 4 4 0 0 1 -.79-.48 6.43 6.43 0 0 1 -.84-1.33c-.38-.73-1-1.91-1.78-3.56l-2.09-4.23a55.18 55.18 0 0 0 -.8 9.35v1.18c0 1 0 1.68-.05 1.92a1.45 1.45 0 0 1 -.4.76 1 1 0 0 1 -.72.4 2.2 2.2 0 0 1 -1.6-.61 2.17 2.17 0 0 1 -.69-1.11 3.1 3.1 0 0 1 .22-1.08 13.61 13.61 0 0 0 .43-3 62.8 62.8 0 0 1 .91-6.75 26.26 26.26 0 0 0 .64-3.84 5.28 5.28 0 0 1 .29-2.17.89.89 0 0 1 .81-.51 3.79 3.79 0 0 1 1.41.5 2.31 2.31 0 0 1 1.25 1.19c.17.46.42 1.13.76 2s.87 2.12 1.58 3.71 1.33 2.81 1.83 3.67l1.35-1.59c1.66-1.89 2.85-3.31 3.59-4.31a18 18 0 0 0 1.89-3c.77-1.62 1.46-2.43 2.08-2.43a3.51 3.51 0 0 1 1.33.39c.56.25.86.57.9.94z"/><path d="m102.77 55c-2.07 2.74-4.07 4.11-6 4.11a2.42 2.42 0 0 1 -1.85-.84 3.08 3.08 0 0 1 -.78-2.16q0-3.16 2.82-6.73c1.87-2.39 3.77-3.58 5.67-3.58a1.86 1.86 0 0 1 1.91 1.47c.92 0 1.37.35 1.37 1.05a10.43 10.43 0 0 1 -.26 1.81 21.66 21.66 0 0 0 -.48 3.93 7.5 7.5 0 0 0 .21 2.14 5.58 5.58 0 0 0 .31.81 1.11 1.11 0 0 0 .57.41.7.7 0 0 1 .48.63 1.18 1.18 0 0 1 -.62 1 2.23 2.23 0 0 1 -1.28.41 1.67 1.67 0 0 1 -1.62-1.12 6.45 6.45 0 0 1 -.49-2.62v-.36c.02-.15.03-.27.04-.36zm-.64-6.64c-.8 0-1.85.88-3.13 2.66a8.29 8.29 0 0 0 -1.93 4.53c0 .65.14 1 .41 1 .94 0 2.09-.83 3.46-2.49s2.06-3.2 2.06-4.44a1.51 1.51 0 0 0 -.27-.95.74.74 0 0 0 -.6-.35z"/><path d="m111.56 58.15c-.16.65-.36 1.84-.6 3.56s-.38 2.89-.43 3.49a2.53 2.53 0 0 1 -.61 1.5 1.45 1.45 0 0 1 -1 .62 1.73 1.73 0 0 1 -1.06-.4 1.12 1.12 0 0 1 -.52-.88 9.74 9.74 0 0 1 .3-2.23 66.58 66.58 0 0 0 2-14.73v-.24a12.4 12.4 0 0 1 .1-2 1.86 1.86 0 0 1 .59-1 1.66 1.66 0 0 1 1.18-.48 1.1 1.1 0 0 1 .94.51 2.57 2.57 0 0 1 .36 1.48 27 27 0 0 1 -.35 3.42 13.09 13.09 0 0 1 3.16-3.65 5.63 5.63 0 0 1 3.38-1.44 3.07 3.07 0 0 1 2.27 1 3.28 3.28 0 0 1 .94 2.4 10 10 0 0 1 -3 7q-3 3.15-5.91 3.15a1.57 1.57 0 0 1 -1.74-1.08zm6.93-9.76c-1 0-2.23.94-3.78 2.84s-2.32 3.37-2.32 4.46a1 1 0 0 0 .41.74 1.51 1.51 0 0 0 1 .33c1 0 2.17-.79 3.48-2.38a7.33 7.33 0 0 0 2-4.6 1.89 1.89 0 0 0 -.23-1.06.61.61 0 0 0 -.56-.33z"/><path d="m132.61 54.56a11 11 0 0 1 -2.61 3.32 4.84 4.84 0 0 1 -3.06 1.23 2.66 2.66 0 0 1 -1.86-1 4.13 4.13 0 0 1 -.93-3 20 20 0 0 1 .71-4.28 15.08 15.08 0 0 0 .62-3.59 1.57 1.57 0 0 1 1.49-1 1.49 1.49 0 0 1 1.52 1.38 7.33 7.33 0 0 1 -.6 2.41 22.37 22.37 0 0 0 -.74 2.63 12.79 12.79 0 0 0 -.4 2.18c0 1.06.22 1.58.65 1.58.7 0 1.63-.66 2.81-2a9.93 9.93 0 0 0 2.3-4.08 10.57 10.57 0 0 1 .95-2.67 1.34 1.34 0 0 1 1.18-.63c.83 0 1.24.46 1.24 1.38a3.08 3.08 0 0 1 -.2.82 14.92 14.92 0 0 0 -.7 4.75c0 2.07.35 3.31 1.05 3.71a.58.58 0 0 1 .34.5c0 .29-.2.56-.61.81a2.14 2.14 0 0 1 -1.15.39c-.63 0-1.11-.45-1.45-1.33a10.26 10.26 0 0 1 -.55-3.51z"/><path d="m149.78 54.06c0 1.82.31 2.95.86 3.39a1.08 1.08 0 0 1 .47.76q0 .43-.6.81a2.17 2.17 0 0 1 -1.16.39 1.81 1.81 0 0 1 -1.65-1.3 9.42 9.42 0 0 1 -.58-3.75v-.83s-.18-.05-.54-.05a23.1 23.1 0 0 0 -2.9.21c-1.08.14-1.63.3-1.63.48a5 5 0 0 1 -.25 1.28 2.82 2.82 0 0 0 -.13.87l.05 1a2.41 2.41 0 0 1 -.42 1.42 1.37 1.37 0 0 1 -1.21.59c-.93 0-1.39-.52-1.39-1.57l.05-1a15.8 15.8 0 0 1 .25-1.86 49.91 49.91 0 0 0 .51-5.12l.19-2.57a1.24 1.24 0 0 1 .54-.8 1.79 1.79 0 0 1 1.15-.42c.86 0 1.29.32 1.29 1v.27a36.57 36.57 0 0 0 -.54 4.27s0 .08 0 .08a24.28 24.28 0 0 0 3.23-.22 15.25 15.25 0 0 0 1.85-.25 6 6 0 0 0 .32-2.11 5.63 5.63 0 0 1 .63-2.56 1.48 1.48 0 0 1 1.28-.65 1.61 1.61 0 0 1 1.16.36 1 1 0 0 1 .27 1l-.2.9c0 .15-.09.39-.19.72a16.09 16.09 0 0 0 -.7 4.54z"/><path d="m163.57 54.83c0 .82-.69 1.81-2.09 3a7.19 7.19 0 0 1 -4.71 1.72 4.06 4.06 0 0 1 -3.17-1.27 5 5 0 0 1 -1.16-3.53 9.74 9.74 0 0 1 2.37-6.26q2.35-2.93 5-2.92a2.82 2.82 0 0 1 3 2.86 5.47 5.47 0 0 1 -2 4 10.75 10.75 0 0 1 -5.11 2.59.41.41 0 0 0 -.36.43 1.52 1.52 0 0 0 .51 1.09 1.79 1.79 0 0 0 1.35.52 6.72 6.72 0 0 0 4.8-2.55 1.29 1.29 0 0 1 .89-.48c.44-.03.68.26.68.8zm-8-2.11a7.32 7.32 0 0 0 3.32-1.61 3.3 3.3 0 0 0 1.44-2.23 1.06 1.06 0 0 0 -.22-.67.73.73 0 0 0 -.57-.26 3.34 3.34 0 0 0 -2.3 1.52 8 8 0 0 0 -1.67 3.25z"/><path d="m177.88 57.8a1.64 1.64 0 0 1 -.38.81 1.52 1.52 0 0 1 -1.34.53c-.79 0-1.49-.67-2.11-2a17.17 17.17 0 0 1 -1.34-4.39c-.09-.53-.22-1.15-.38-1.86a7.26 7.26 0 0 1 -.11-.75 4 4 0 0 0 -.09-.65c-.13.26-.26.55-.41.87a44.51 44.51 0 0 1 -3.27 6l-.14.27a.76.76 0 0 1 -.18.24c-1 1.77-1.79 2.65-2.42 2.65-.9 0-1.35-.4-1.35-1.21a4.33 4.33 0 0 1 1.27-2.42 40.83 40.83 0 0 0 4-6.52l1.69-3.24a1 1 0 0 1 .92-.48 2.51 2.51 0 0 1 .93.23 1.42 1.42 0 0 1 .7.56 4.67 4.67 0 0 1 .33 1.05q.86 4 1.55 6.35a5.89 5.89 0 0 0 1.51 2.94 1.06 1.06 0 0 1 .65 1z"/><path d="m182.78 50.84c1.58-1.78 3.15-2.67 4.73-2.67a3.71 3.71 0 0 1 2.6 1 2.85 2.85 0 0 1 1.06 2.19c0 1.94-1 3.74-3 5.4a9.05 9.05 0 0 1 -5.63 2.5 2.5 2.5 0 0 1 -2.23-1.26 6.59 6.59 0 0 1 -.76-3.45 22.83 22.83 0 0 1 1.35-7.63c.08-.24.15-.47.21-.7s.37-.56.85-.75a3.27 3.27 0 0 1 1.06-.3.89.89 0 0 1 .67.28 1.08 1.08 0 0 1 .27.79 10.17 10.17 0 0 1 -.44 1.79c-.34 1.15-.59 2.09-.74 2.81zm-.26 2.68a9.64 9.64 0 0 0 -.08 1.12q0 1.39.33 1.71a.94.94 0 0 0 .63.3 5.85 5.85 0 0 0 2.88-1.35 3.73 3.73 0 0 0 1.89-3 1.69 1.69 0 0 0 -.36-1.14 1.14 1.14 0 0 0 -.91-.43 4.81 4.81 0 0 0 -3.58 2.07c-.39.47-.66.71-.8.72z"/><path d="m197.08 57.67a1.53 1.53 0 0 1 -.83 1.27 2.94 2.94 0 0 1 -1.55.53 1.84 1.84 0 0 1 -1.26-.45 1.39 1.39 0 0 1 -.51-1.1c0-.37.31-.77.95-1.21l.29-.21a1.3 1.3 0 0 1 .86-.25 1.83 1.83 0 0 1 1 .4c.68.05 1.05.35 1.05 1.02zm7-12.37a5.39 5.39 0 0 1 -.71 2.9 4.16 4.16 0 0 1 -1.67 1.58c-.64.29-2 .79-3.95 1.48a12.53 12.53 0 0 0 -.56 2 1.36 1.36 0 0 1 -.55.92 2.65 2.65 0 0 1 -1.46.3c-.22 0-.39-.16-.52-.48a2.67 2.67 0 0 1 -.19-1 3.19 3.19 0 0 1 .17-1c.12-.33.42-1 .9-2a7 7 0 0 1 1.2-.84c.36-.19 1.05-.48 2.07-.88l1.61-.63a1.49 1.49 0 0 0 .7-.77 2.61 2.61 0 0 0 .29-1.15 4.27 4.27 0 0 0 -.19-1.1 2.4 2.4 0 0 0 -.34-.87 1.37 1.37 0 0 0 -.59-.31 2.76 2.76 0 0 0 -.88-.15 3.24 3.24 0 0 0 -1.75.33 1.08 1.08 0 0 0 -.52.63c-.1.71-.72 1.06-1.84 1.06-.73 0-1.09-.35-1.09-1.05a2.41 2.41 0 0 1 .69-1.45 6.3 6.3 0 0 1 1.76-1.39 3.85 3.85 0 0 1 1.89-.57h1.38a3.4 3.4 0 0 1 2.12.49 4.57 4.57 0 0 1 1.66 1.63 5.86 5.86 0 0 1 .38 2.36z"/></g></svg>