<svg height="7.38mm" viewBox="0 0 72.81 20.93" width="25.69mm" xmlns="http://www.w3.org/2000/svg"><g fill="#fff" transform="translate(-3.02 -2.52)"><path d="m6.48 4.48a1.71 1.71 0 0 1 -.37 1.25 2.06 2.06 0 0 1 -1.37.34 2.07 2.07 0 0 1 -1.37-.33 1.64 1.64 0 0 1 -.37-1.2 1.72 1.72 0 0 1 .36-1.26 2 2 0 0 1 1.38-.35 2 2 0 0 1 1.36.34 1.62 1.62 0 0 1 .38 1.21zm-.23 14.24a.33.33 0 0 1 -.07.21.53.53 0 0 1 -.25.14 2 2 0 0 1 -.45.09c-.19 0-.44 0-.73 0a7.18 7.18 0 0 1 -.73 0 2.2 2.2 0 0 1 -.46-.09.54.54 0 0 1 -.24-.14.33.33 0 0 1 -.07-.21v-10.62a.31.31 0 0 1 .07-.21.55.55 0 0 1 .24-.15 2.13 2.13 0 0 1 .44-.1 4.9 4.9 0 0 1 .73 0 5 5 0 0 1 .73 0 1.9 1.9 0 0 1 .45.1.53.53 0 0 1 .25.15.31.31 0 0 1 .07.21z"/><path d="m18.79 8.07v.14.18c0 .07 0 .15-.05.24l-.07.3-3.2 9.62a1 1 0 0 1 -.16.33.66.66 0 0 1 -.33.19 3 3 0 0 1 -.64.1c-.26 0-.61 0-1 0s-.77 0-1 0a2.76 2.76 0 0 1 -.63-.1.66.66 0 0 1 -.33-.2 1 1 0 0 1 -.16-.31l-3.29-9.63c0-.16-.09-.31-.12-.43a2.6 2.6 0 0 1 0-.28.81.81 0 0 1 0-.15.31.31 0 0 1 .07-.21.46.46 0 0 1 .23-.15 1.6 1.6 0 0 1 .46-.08h.73s.59 0 .79 0a3.21 3.21 0 0 1 .47.08.44.44 0 0 1 .24.16.9.9 0 0 1 .12.24l2.42 7.82.07.29.08-.29 2.38-7.82a.88.88 0 0 1 .11-.24.57.57 0 0 1 .25-.16 2.88 2.88 0 0 1 .45-.08 8.78 8.78 0 0 1 1.45 0 1.51 1.51 0 0 1 .44.08.44.44 0 0 1 .21.15.37.37 0 0 1 .01.21z"/><path d="m29 18.75a.31.31 0 0 1 -.12.26.8.8 0 0 1 -.38.14 4.77 4.77 0 0 1 -.75 0 5.11 5.11 0 0 1 -.79 0 .63.63 0 0 1 -.34-.14.33.33 0 0 1 -.1-.26v-.85a4.84 4.84 0 0 1 -1.52 1.1 4.24 4.24 0 0 1 -1.87.4 5.42 5.42 0 0 1 -1.55-.22 3.55 3.55 0 0 1 -1.23-.66 3 3 0 0 1 -.81-1.08 3.68 3.68 0 0 1 -.28-1.5 3.46 3.46 0 0 1 .36-1.62 3 3 0 0 1 1.09-1.13 5.3 5.3 0 0 1 1.79-.66 12.33 12.33 0 0 1 2.5-.22h1v-.64a3.28 3.28 0 0 0 -.1-.88 1.47 1.47 0 0 0 -.33-.62 1.43 1.43 0 0 0 -.57-.37 3.3 3.3 0 0 0 -1-.12 5.1 5.1 0 0 0 -1.35.16 8.27 8.27 0 0 0 -1 .37l-.76.37a1.1 1.1 0 0 1 -.49.17.36.36 0 0 1 -.23-.08.61.61 0 0 1 -.17-.24 1.74 1.74 0 0 1 -.1-.38 2.6 2.6 0 0 1 0-.5 2.27 2.27 0 0 1 .04-.55 1 1 0 0 1 .23-.39 2.51 2.51 0 0 1 .58-.38 7.14 7.14 0 0 1 1-.39 11.54 11.54 0 0 1 1.25-.33 8.74 8.74 0 0 1 1.37-.11 8.31 8.31 0 0 1 2.14.24 3.8 3.8 0 0 1 1.46.75 3 3 0 0 1 .84 1.31 6.23 6.23 0 0 1 .19 1.9zm-2.93-4.55h-1.14a6.27 6.27 0 0 0 -1.24.1 2.5 2.5 0 0 0 -.84.33 1.34 1.34 0 0 0 -.47.51 1.6 1.6 0 0 0 -.15.7 1.31 1.31 0 0 0 .43 1.05 1.65 1.65 0 0 0 1.17.38 2.14 2.14 0 0 0 1.17-.27 4.54 4.54 0 0 0 1.07-1z"/><path d="m39.26 15.71a3.66 3.66 0 0 1 -.34 1.6 3.27 3.27 0 0 1 -1 1.16 4.34 4.34 0 0 1 -1.47.69 6.77 6.77 0 0 1 -1.84.24 7.11 7.11 0 0 1 -1.14-.09 7.3 7.3 0 0 1 -1-.23 4.57 4.57 0 0 1 -.71-.28 2.19 2.19 0 0 1 -.42-.27.72.72 0 0 1 -.2-.39 3.11 3.11 0 0 1 -.08-.8 4 4 0 0 1 0-.55 1.17 1.17 0 0 1 .07-.33.29.29 0 0 1 .12-.17.34.34 0 0 1 .18 0 .92.92 0 0 1 .39.15 6.06 6.06 0 0 0 .63.32 6.4 6.4 0 0 0 .89.34 4.06 4.06 0 0 0 1.15.15 2.64 2.64 0 0 0 .72-.08 1.86 1.86 0 0 0 .55-.24.87.87 0 0 0 .35-.39 1.2 1.2 0 0 0 .12-.55.88.88 0 0 0 -.22-.61 1.8 1.8 0 0 0 -.58-.45 6.3 6.3 0 0 0 -.82-.36c-.31-.11-.62-.23-1-.37a9.06 9.06 0 0 1 -.94-.46 3.67 3.67 0 0 1 -.82-.65 3 3 0 0 1 -.59-.92 3.45 3.45 0 0 1 -.22-1.28 3.3 3.3 0 0 1 .3-1.41 3.13 3.13 0 0 1 .86-1.09 4.11 4.11 0 0 1 1.37-.7 5.93 5.93 0 0 1 1.8-.25 6.28 6.28 0 0 1 1 .07 8.4 8.4 0 0 1 .85.18 4.21 4.21 0 0 1 .64.23 2.59 2.59 0 0 1 .38.22.65.65 0 0 1 .16.18.86.86 0 0 1 .07.21 2.15 2.15 0 0 1 0 .31v.46s0 .39 0 .52a1.22 1.22 0 0 1 -.06.33.29.29 0 0 1 -.11.16.43.43 0 0 1 -.17 0 .74.74 0 0 1 -.33-.13l-.57-.27a6.66 6.66 0 0 0 -.79-.26 3.46 3.46 0 0 0 -1-.13 2.43 2.43 0 0 0 -.7.09 1.31 1.31 0 0 0 -.49.23 1.09 1.09 0 0 0 -.38.81.92.92 0 0 0 .23.63 2.33 2.33 0 0 0 .59.44 8.53 8.53 0 0 0 .84.35l1 .37a7.53 7.53 0 0 1 1 .46 3.34 3.34 0 0 1 .84.64 2.88 2.88 0 0 1 .6.91 3.26 3.26 0 0 1 .29 1.26z"/><path d="m44.5 4.48a1.71 1.71 0 0 1 -.37 1.25 2.06 2.06 0 0 1 -1.37.34 2.07 2.07 0 0 1 -1.37-.33 1.64 1.64 0 0 1 -.39-1.2 1.72 1.72 0 0 1 .36-1.26 2 2 0 0 1 1.38-.35 2 2 0 0 1 1.36.34 1.62 1.62 0 0 1 .4 1.21zm-.23 14.24a.33.33 0 0 1 -.07.21.54.54 0 0 1 -.24.14 2.2 2.2 0 0 1 -.46.09c-.19 0-.44 0-.73 0a7.18 7.18 0 0 1 -.73 0 2.2 2.2 0 0 1 -.46-.09.54.54 0 0 1 -.24-.14.33.33 0 0 1 -.07-.21v-10.62a.31.31 0 0 1 .07-.21.55.55 0 0 1 .24-.15 2.13 2.13 0 0 1 .46-.1 4.9 4.9 0 0 1 .73 0 5 5 0 0 1 .73 0 2.13 2.13 0 0 1 .46.1.55.55 0 0 1 .24.15.31.31 0 0 1 .07.21z"/><path d="m50.55 17.4a2.14 2.14 0 0 1 -.39 1.5 2 2 0 0 1 -1.39.38 2 2 0 0 1 -1.38-.38 2 2 0 0 1 -.39-1.42 2.16 2.16 0 0 1 .4-1.48 2 2 0 0 1 1.4-.38 2 2 0 0 1 1.37.38 2 2 0 0 1 .38 1.4z"/><path d="m64 13.25a10 10 0 0 1 -.31 2.56 5.94 5.94 0 0 1 -.9 1.93 4.1 4.1 0 0 1 -1.42 1.26 4.36 4.36 0 0 1 -1.94.43 4.51 4.51 0 0 1 -1-.11 3.16 3.16 0 0 1 -.89-.32 5.28 5.28 0 0 1 -.84-.58 8.13 8.13 0 0 1 -.84-.83v1.16a.4.4 0 0 1 -.06.22.53.53 0 0 1 -.22.15 1.65 1.65 0 0 1 -.4.08 5.35 5.35 0 0 1 -.6 0 5.54 5.54 0 0 1 -.62 0 1.66 1.66 0 0 1 -.39-.08.44.44 0 0 1 -.21-.15.4.4 0 0 1 -.06-.22v-15.75a.31.31 0 0 1 .07-.21.54.54 0 0 1 .25-.16 1.51 1.51 0 0 1 .45-.1 5.07 5.07 0 0 1 .73 0 4.9 4.9 0 0 1 .73 0 1.66 1.66 0 0 1 .46.1.56.56 0 0 1 .24.16.31.31 0 0 1 .07.21v5.91a5.67 5.67 0 0 1 .82-.69 4.84 4.84 0 0 1 .81-.47 4 4 0 0 1 .83-.27 5.31 5.31 0 0 1 .91-.08 4 4 0 0 1 2 .47 3.79 3.79 0 0 1 1.33 1.27 5.52 5.52 0 0 1 .77 1.86 10.19 10.19 0 0 1 .23 2.25zm-3.11.22a8 8 0 0 0 -.11-1.31 3.42 3.42 0 0 0 -.34-1.16 2.11 2.11 0 0 0 -.65-.79 1.68 1.68 0 0 0 -1-.29 2 2 0 0 0 -.58.09 2.1 2.1 0 0 0 -.59.28 4.67 4.67 0 0 0 -.63.53 7.56 7.56 0 0 0 -.68.8v3.53a6.73 6.73 0 0 0 1.21 1.23 2 2 0 0 0 1.22.42 1.67 1.67 0 0 0 1-.29 2.34 2.34 0 0 0 .68-.78 3.65 3.65 0 0 0 .39-1.08 6.38 6.38 0 0 0 .09-1.18z"/><path d="m72.2 19.12-1.29 3.77a.78.78 0 0 1 -.59.43 7.47 7.47 0 0 1 -2.16.09.93.93 0 0 1 -.42-.14.3.3 0 0 1 -.16-.24.79.79 0 0 1 .07-.34l1.42-3.57a.83.83 0 0 1 -.28-.22 1 1 0 0 1 -.18-.32l-3.67-9.77a2.08 2.08 0 0 1 -.15-.64.47.47 0 0 1 .14-.35 1 1 0 0 1 .49-.17 6.86 6.86 0 0 1 .9-.05h.81a1.28 1.28 0 0 1 .46.09.49.49 0 0 1 .25.22 2.25 2.25 0 0 1 .17.42l2.5 7.12 2.29-7.26a.87.87 0 0 1 .2-.39.79.79 0 0 1 .38-.15 6.05 6.05 0 0 1 .92-.05 6.58 6.58 0 0 1 .85.05 1 1 0 0 1 .5.18.42.42 0 0 1 .16.35 1.83 1.83 0 0 1 -.09.52z"/></g></svg>